<?xml version="1.0" encoding="utf-8"?>
<!-- Generator: Adobe Illustrator 27.2.0, SVG Export Plug-In . SVG Version: 6.00 Build 0)  -->
<svg version="1.1" id="Layer_1" xmlns="http://www.w3.org/2000/svg" xmlns:xlink="http://www.w3.org/1999/xlink" x="0px" y="0px"
	 viewBox="0 0 481.7 468.9" style="enable-background:new 0 0 481.7 468.9;" xml:space="preserve">
<style type="text/css">
	.st0{fill:#FFFFFF;}
	.st1{fill:none;stroke:#000000;stroke-width:4.7129;stroke-linecap:round;stroke-miterlimit:10;}
	.st2{stroke:#000000;stroke-width:1.5511;stroke-miterlimit:10;}
	.st3{stroke:#000000;stroke-width:0.4329;stroke-miterlimit:10;}
</style>
<rect x="1.9" y="1" class="st0" width="478.5" height="466.4"/>
<path d="M385.6,208.9c3.1,3.1,6,6,8.9,8.9c0.5,0.5,1,1,1.5,1.5c1.2,1.5,1.2,3.2-0.1,4.4c-1.2,1.2-3,1.2-4.4-0.1
	c-1-0.9-1.9-1.8-2.8-2.8c-3.1-3.1-6.2-6.2-9.3-9.3c-1.9-1.9-1.9-3.4,0-5.4c3.9-3.9,7.7-7.8,11.6-11.6c1.7-1.6,3.5-1.8,4.8-0.4
	c1.4,1.3,1.2,3.2-0.4,4.8C392.3,202.3,389,205.5,385.6,208.9z"/>
<path d="M431.8,209.2c-3.2-3.2-6.3-6.2-9.4-9.2c-0.4-0.4-0.9-0.8-1.2-1.3c-1-1.4-1-2.9,0.3-4.1c1.2-1.2,2.8-1.4,4.1-0.2
	c4.5,4.3,8.8,8.7,13.1,13.2c1.2,1.2,0.9,2.9-0.3,4.1c-4.1,4.2-8.3,8.3-12.5,12.4c-1.4,1.3-3.2,1.3-4.4,0.1c-1.3-1.2-1.3-3.1,0.1-4.5
	c2.9-3,5.8-5.8,8.7-8.7C430.7,210.3,431.1,209.9,431.8,209.2z"/>
<path d="M415.1,192.2c-0.4,2.1-1,4.6-1.5,7.1c-1.6,7.6-3.1,15.2-4.7,22.7c-0.6,2.9-2.1,4.3-3.9,3.8c-2-0.6-2.7-2.6-2.1-5.7
	c2-9.6,3.9-19.3,6-28.9c0.5-2.3,1.9-3.5,3.5-3.2C414,188.2,415.1,189.8,415.1,192.2z"/>
<g>
	<path d="M448,117.2h-78.4c-5.8,0-10.5,5.2-10.5,11.6V289c0,6.4,4.7,11.6,10.5,11.6H448c5.8,0,10.5-5.2,10.5-11.6V128.8
		C458.4,122.4,453.8,117.2,448,117.2z M452.6,289c0,2.8-2.1,5.1-4.6,5.1h-78.4c-2.5,0-4.6-2.3-4.6-5.1V128.8c0-2.8,2.1-5.1,4.6-5.1
		H448c2.5,0,4.6,2.3,4.6,5.1C452.6,128.8,452.6,289,452.6,289z"/>
</g>
<path d="M409.8,136.7c-2.9,0-5.9,0-8.8,0c-2.2,0-3.5-1.2-3.6-3.1c0-1.8,1.3-3.1,3.5-3.2c6,0,12,0,18,0c2.2,0,3.5,1.2,3.6,3.1
	c0,1.9-1.4,3.1-3.7,3.2C415.8,136.7,412.8,136.7,409.8,136.7z"/>
<path class="st0" d="M466.8,128c-1.8,0-3.2,1.4-3.2,3.4c0,1.8,1.2,3.1,3,3.2c1.7,0,3.3-1.6,3.3-3.4C469.8,129.4,468.5,128,466.8,128
	z"/>
<path class="st0" d="M463.6,144c0,1.8,1.2,3.1,3,3.2c1.7,0,3.3-1.6,3.3-3.4c0-1.7-1.4-3.1-3.1-3.1C464.9,140.5,463.6,142,463.6,144z
	"/>
<path class="st0" d="M463.6,156.4c0,1.9,1.1,3.1,2.9,3.2c1.7,0.1,3.3-1.5,3.4-3.3c0-1.7-1.3-3.1-3-3.2
	C465,153,463.6,154.4,463.6,156.4z"/>
<path d="M466.8,128c1.7,0,3.1,1.4,3.1,3.1c0,1.8-1.6,3.5-3.3,3.4c-1.8,0-3-1.3-3-3.2C463.6,129.4,464.9,128,466.8,128z"/>
<path d="M463.6,144c0-2,1.4-3.4,3.2-3.4c1.7,0,3.1,1.4,3.1,3.1c0,1.8-1.6,3.5-3.3,3.4C464.8,147.1,463.6,145.8,463.6,144z"/>
<path d="M463.6,156.4c0-2,1.4-3.4,3.3-3.3c1.7,0.1,3,1.5,3,3.2c-0.1,1.8-1.7,3.4-3.4,3.3C464.7,159.5,463.6,158.3,463.6,156.4z"/>
<path class="st0" d="M348.2,253.3c-1.8,0-3.2,1.4-3.2,3.4c0,1.8,1.2,3.1,3,3.2c1.7,0,3.3-1.6,3.3-3.4
	C351.3,254.8,349.9,253.4,348.2,253.3z"/>
<path class="st0" d="M345,269.3c0,1.8,1.2,3.1,3,3.2c1.7,0,3.3-1.6,3.3-3.4c0-1.7-1.4-3.1-3.1-3.1C346.4,265.8,345,267.3,345,269.3z
	"/>
<path class="st0" d="M345,281.7c0,1.9,1.1,3.1,2.9,3.2c1.7,0.1,3.3-1.5,3.4-3.3c0-1.7-1.3-3.1-3-3.2
	C346.5,278.3,345.1,279.8,345,281.7z"/>
<path d="M348.2,253.3c1.7,0,3.1,1.4,3.1,3.1c0,1.8-1.6,3.5-3.3,3.4c-1.8,0-3-1.3-3-3.2C345,254.8,346.4,253.3,348.2,253.3z"/>
<path d="M345,269.3c0-2,1.4-3.4,3.2-3.4c1.7,0,3.1,1.4,3.1,3.1c0,1.8-1.6,3.5-3.3,3.4C346.2,272.4,345,271.1,345,269.3z"/>
<path d="M345,281.7c0-2,1.4-3.4,3.3-3.3c1.7,0.1,3,1.5,3,3.2c-0.1,1.8-1.7,3.4-3.4,3.3C346.1,284.9,345,283.6,345,281.7z"/>
<path d="M430.9,134.1c0-2,1.4-3.4,3.3-3.3c1.7,0.1,3,1.5,3,3.2c-0.1,1.8-1.7,3.4-3.4,3.3C432,137.2,430.9,135.9,430.9,134.1z"/>
<g>
	<g>
		<path d="M289.9,261.9h-78.4c-5.8,0-10.5,5.2-10.5,11.6v160.2c0,6.4,4.7,11.6,10.5,11.6h78.4c5.8,0,10.5-5.2,10.5-11.6V273.5
			C300.4,267.1,295.7,261.9,289.9,261.9z M294.5,433.7c0,2.8-2.1,5.1-4.6,5.1h-78.4c-2.5,0-4.6-2.3-4.6-5.1V273.5
			c0-2.8,2.1-5.1,4.6-5.1h78.4c2.5,0,4.6,2.3,4.6,5.1C294.5,273.5,294.5,433.7,294.5,433.7z"/>
	</g>
	<path d="M251.7,281.4c-2.9,0-5.9,0-8.8,0c-2.2,0-3.5-1.2-3.6-3.1c0-1.8,1.3-3.1,3.5-3.2c6,0,12,0,18,0c2.2,0,3.5,1.2,3.6,3.1
		c0,1.9-1.4,3.1-3.7,3.2C257.7,281.4,254.7,281.4,251.7,281.4z"/>
	<path class="st0" d="M308.7,272.7c-1.8,0-3.2,1.4-3.2,3.4c0,1.8,1.2,3.1,3,3.2c1.7,0,3.3-1.6,3.3-3.4
		C311.8,274.1,310.4,272.7,308.7,272.7z"/>
	<path class="st0" d="M305.5,288.6c0,1.8,1.2,3.1,3,3.2c1.7,0,3.3-1.6,3.3-3.4c0-1.7-1.4-3.1-3.1-3.1
		C306.9,285.2,305.5,286.6,305.5,288.6z"/>
	<path class="st0" d="M305.5,301.1c0,1.9,1.1,3.1,2.9,3.2c1.7,0.1,3.3-1.5,3.4-3.3c0-1.7-1.3-3.1-3-3.2
		C307,297.7,305.6,299.1,305.5,301.1z"/>
	<path d="M308.7,272.7c1.7,0,3.1,1.4,3.1,3.1c0,1.8-1.6,3.5-3.3,3.4c-1.8,0-3-1.3-3-3.2C305.5,274.1,306.9,272.6,308.7,272.7z"/>
	<path d="M305.5,288.6c0-2,1.4-3.4,3.2-3.4c1.7,0,3.1,1.4,3.1,3.1c0,1.8-1.6,3.5-3.3,3.4C306.7,291.7,305.5,290.5,305.5,288.6z"/>
	<path d="M305.5,301.1c0-2,1.4-3.4,3.3-3.3c1.7,0.1,3,1.5,3,3.2c-0.1,1.8-1.7,3.4-3.4,3.3C306.6,304.2,305.5,302.9,305.5,301.1z"/>
	<path class="st0" d="M192.8,401.1c-1.8,0-3.2,1.4-3.2,3.4c0,1.8,1.2,3.1,3,3.2c1.7,0,3.3-1.6,3.3-3.4
		C195.9,402.6,194.5,401.2,192.8,401.1z"/>
	<path class="st0" d="M189.6,417.1c0,1.8,1.2,3.1,3,3.2c1.7,0,3.3-1.6,3.3-3.4c0-1.7-1.4-3.1-3.1-3.1
		C191,413.6,189.6,415.1,189.6,417.1z"/>
	<path class="st0" d="M189.6,429.5c0,1.9,1.1,3.1,2.9,3.2c1.7,0.1,3.3-1.5,3.4-3.3c0-1.7-1.3-3.1-3-3.2
		C191.1,426.1,189.7,427.6,189.6,429.5z"/>
	<path d="M192.8,401.1c1.7,0,3.1,1.4,3.1,3.1c0,1.8-1.6,3.5-3.3,3.4c-1.8,0-3-1.3-3-3.2C189.6,402.6,191,401.1,192.8,401.1z"/>
	<path d="M189.6,417.1c0-2,1.4-3.4,3.2-3.4c1.7,0,3.1,1.4,3.1,3.1c0,1.8-1.6,3.5-3.3,3.4C190.8,420.2,189.6,418.9,189.6,417.1z"/>
	<path d="M189.6,429.5c0-2,1.4-3.4,3.3-3.3c1.7,0.1,3,1.5,3,3.2c-0.1,1.8-1.7,3.4-3.4,3.3C190.7,432.7,189.6,431.4,189.6,429.5z"/>
	<path d="M272.9,278.7c0-2,1.4-3.4,3.3-3.3c1.7,0.1,3,1.5,3,3.2c-0.1,1.8-1.7,3.4-3.4,3.3C274,281.9,272.9,280.6,272.9,278.7z"/>
	<path d="M269.6,333.9c3.3,4.4,6.6,8.7,9.9,13.1c1.1,1.5,2.3,3,3.4,4.5c1,1.4,1,2.7-0.1,3.5c-1.1,0.8-2.4,0.5-3.4-0.9
		c-3.9-5.1-7.8-10.2-11.6-15.3c-0.2-0.3-0.5-0.6-0.8-1c-0.4,0.5-0.7,0.8-1,1.2c-3.6,4.7-7.1,9.5-10.7,14.2c-0.2,0.3-0.5,0.7-0.7,0.9
		c-0.9,0.8-1.9,1-3,0.3c-1-0.7-1.1-2-0.4-3c0.9-1.3,1.8-2.5,2.7-3.7c3.4-4.5,6.8-9.1,10.3-13.7c-3.1-4.1-6.2-8.2-9.3-12.3
		c-0.7-1-1.5-1.9-2.2-3c-0.9-1.2-0.8-2.5,0.3-3.3c1-0.8,2.3-0.6,3.2,0.6c3.4,4.5,6.8,9,10.2,13.4c0.1,0.2,0.3,0.4,0.6,0.7
		c0.4-0.4,0.7-0.8,1-1.2c3.1-4.1,6.2-8.2,9.3-12.3c0.2-0.3,0.4-0.6,0.6-0.8c0.9-1,2.1-1.1,3-0.4c1,0.7,1.2,2,0.4,3.1
		c-0.7,1-1.4,1.9-2.1,2.8C275.9,325.5,272.8,329.7,269.6,333.9z"/>
	<path d="M216.3,330.3c0-4.1,0-8.1,0-12.2c0-2,0.8-3,2.3-3c1.5,0,2.2,1.1,2.2,3.1c0,7.6,0.3,15.3-0.1,22.9
		c-0.3,5.8,5.9,10.4,11.1,9.7c2.4-0.3,4.6-1.2,6.4-2.8c1.9-1.7,2.9-3.7,2.9-6.3c-0.1-7.7,0-15.4,0-23.1c0-0.4,0-0.9,0-1.3
		c0.2-1.4,1.1-2.2,2.4-2.2c1.2,0.1,2,0.9,2.1,2.3c0,4,0,8,0,12.1c0,3.7,0,7.4,0,11.2c0,6.9-3.6,11.9-10.2,14
		c-8.1,2.6-17.3-2.4-18.8-10.3c-0.4-1.8-0.2-3.8-0.2-5.6C216.3,335.9,216.3,333.1,216.3,330.3z"/>
	<path d="M218,389.7c0-4.1,0-8.1,0-12.2c0-2,0.8-3,2.3-3c1.5,0,2.2,1.1,2.2,3.1c0,7.6,0.3,15.3-0.1,22.9c-0.3,5.8,5.9,10.4,11.1,9.7
		c2.4-0.3,4.6-1.2,6.4-2.8c1.9-1.7,2.9-3.7,2.9-6.3c-0.1-7.7,0-15.4,0-23.1c0-0.4,0-0.9,0-1.3c0.2-1.4,1.1-2.2,2.4-2.2
		c1.2,0.1,2,0.9,2.1,2.3c0,4,0,8,0,12.1c0,3.7,0,7.4,0,11.2c0,6.9-3.6,11.9-10.2,14c-8.1,2.6-17.3-2.4-18.8-10.3
		c-0.4-1.8-0.2-3.8-0.2-5.6C218,395.3,218,392.5,218,389.7z"/>
	<path d="M267.9,381.3c0,2,0.1,4.4,0.2,6.8c0.2,7.2,0.3,14.4,0.5,21.6c0.1,2.8-1,4.3-2.7,4.2c-1.8-0.1-2.9-1.8-3-4.8
		c-0.2-9.2-0.5-18.4-0.7-27.5c0-2.2,0.9-3.6,2.4-3.6C266,377.9,267.4,379.1,267.9,381.3z"/>
	<path d="M264.5,366.2c1.7,0,3.1,1.4,3.1,3.1c0,1.8-1.6,3.5-3.3,3.4c-1.8,0-3-1.3-3-3.2C261.3,367.6,262.6,366.2,264.5,366.2z"/>
</g>
<g id="Layer_1_00000083798817603948665370000007440060704718815898_">
</g>
<g>
	<g>
		<path d="M149.5,261.9H71.2c-5.8,0-10.5,5.2-10.5,11.6v160.2c0,6.4,4.7,11.6,10.5,11.6h78.4c5.8,0,10.5-5.2,10.5-11.6V273.5
			C160,267.1,155.3,261.9,149.5,261.9z M154.1,433.7c0,2.8-2.1,5.1-4.6,5.1H71.2c-2.5,0-4.6-2.3-4.6-5.1V273.5
			c0-2.8,2.1-5.1,4.6-5.1h78.4c2.5,0,4.6,2.3,4.6,5.1C154.1,273.5,154.1,433.7,154.1,433.7z"/>
	</g>
	<path d="M108.9,280c-2.9,0-5.9,0-8.8,0c-2.2,0-3.5-1.2-3.6-3.1c0-1.8,1.3-3.1,3.5-3.2c6,0,12,0,18,0c2.2,0,3.5,1.2,3.6,3.1
		c0,1.9-1.4,3.1-3.7,3.2C114.9,280,111.9,280,108.9,280z"/>
	<path class="st0" d="M168.3,272.7c-1.8,0-3.2,1.4-3.2,3.4c0,1.8,1.2,3.1,3,3.2c1.7,0,3.3-1.6,3.3-3.4
		C171.4,274.1,170,272.7,168.3,272.7z"/>
	<path class="st0" d="M165.1,288.6c0,1.8,1.2,3.1,3,3.2c1.7,0,3.3-1.6,3.3-3.4c0-1.7-1.4-3.1-3.1-3.1
		C166.5,285.2,165.1,286.6,165.1,288.6z"/>
	<path class="st0" d="M165.1,301.1c0,1.9,1.1,3.1,2.9,3.2c1.7,0.1,3.3-1.5,3.4-3.3c0-1.7-1.3-3.1-3-3.2
		C166.6,297.7,165.1,299.1,165.1,301.1z"/>
	<path d="M168.3,272.7c1.7,0,3.1,1.4,3.1,3.1c0,1.8-1.6,3.5-3.3,3.4c-1.8,0-3-1.3-3-3.2C165.1,274.1,166.5,272.6,168.3,272.7z"/>
	<path d="M165.1,288.6c0-2,1.4-3.4,3.2-3.4c1.7,0,3.1,1.4,3.1,3.1c0,1.8-1.6,3.5-3.3,3.4C166.3,291.7,165.1,290.5,165.1,288.6z"/>
	<path d="M165.1,301.1c0-2,1.4-3.4,3.3-3.3c1.7,0.1,3,1.5,3,3.2c-0.1,1.8-1.7,3.4-3.4,3.3C166.2,304.2,165.1,302.9,165.1,301.1z"/>
	<path class="st0" d="M49.7,398c-1.8,0-3.2,1.4-3.2,3.4c0,1.8,1.2,3.1,3,3.2c1.7,0,3.3-1.6,3.3-3.4C52.8,399.4,51.4,398,49.7,398z"
		/>
	<path class="st0" d="M46.5,414c0,1.8,1.2,3.1,3,3.2c1.7,0,3.3-1.6,3.3-3.4c0-1.7-1.4-3.1-3.1-3.1C47.9,410.5,46.5,412,46.5,414z"/>
	<path class="st0" d="M46.5,426.4c0,1.9,1.1,3.1,2.9,3.2c1.7,0.1,3.3-1.5,3.4-3.3c0-1.7-1.3-3.1-3-3.2C48,423,46.6,424.4,46.5,426.4
		z"/>
	<path d="M49.7,398c1.7,0,3.1,1.4,3.1,3.1c0,1.8-1.6,3.5-3.3,3.4c-1.8,0-3-1.3-3-3.2C46.5,399.4,47.9,398,49.7,398z"/>
	<path d="M46.5,414c0-2,1.4-3.4,3.2-3.4c1.7,0,3.1,1.4,3.1,3.1c0,1.8-1.6,3.5-3.3,3.4C47.7,417.1,46.5,415.8,46.5,414z"/>
	<path d="M46.5,426.4c0-2,1.4-3.4,3.3-3.3c1.7,0.1,3,1.5,3,3.2c-0.1,1.8-1.7,3.4-3.4,3.3C47.6,429.5,46.5,428.3,46.5,426.4z"/>
	<path d="M95.5,323.9l0.3,0.3h1.6l0.3-0.3c0-0.9,0.2-3.7,0.6-4.5c0.1-0.2,0.3-0.3,0.6-0.4c1-0.4,6.8-0.3,8.8-0.3
		c0.1,1.2,0.1,10.4,0.1,18.6c0,4.1-0.1,6.8-0.3,8c-0.1,0.5-0.4,0.8-0.9,1c-0.3,0.1-1.2,0.2-2.9,0.3l-0.3,0.3v1.8l0.2,0.2
		c3.1-0.2,12.1-0.2,15.5,0l0.3-0.3v-1.7l-0.3-0.3c-1.7-0.1-2.7-0.2-2.9-0.3c-0.5-0.1-0.8-0.5-0.9-1c-0.2-1.2-0.3-3.9-0.3-8
		c0-8.2,0-17.3,0.1-18.6c1.6,0,7.4,0,8.1,0.1c0.9,0.1,1.4,0.5,1.6,1.2c0.1,0.4,0.2,1.7,0.3,3.9l0.3,0.2h1.6l0.3-0.3
		c0.1-3.5-0.1-5.4,0.4-8.3l-0.3-0.3c-1.5,0.2-5.1,0.3-10.8,0.3c-6,0-18.9,0.1-20.9-0.3l-0.2,0.3C95.6,318.7,95.4,320.3,95.5,323.9z"
		/>
	<path d="M100.3,415.5h22.3c1.2,0,2.2-1,2.2-2.2s-1-2.2-2.2-2.2h-22.3c-1.2,0-2.2,1-2.2,2.2S99.1,415.5,100.3,415.5z"/>
	<path d="M100.3,408.8h22.3c1.2,0,2.2-1,2.2-2.2s-1-2.2-2.2-2.2h-22.3c-1.2,0-2.2,1-2.2,2.2S99.1,408.8,100.3,408.8z"/>
	<path d="M94.7,402.1h33.5c1.2,0,2.2-1,2.2-2.2s-1-2.2-2.2-2.2H94.7c-1.2,0-2.2,1-2.2,2.2S93.5,402.1,94.7,402.1z"/>
	<path d="M94.7,395.4h33.5c1.2,0,2.2-1,2.2-2.2s-1-2.2-2.2-2.2H94.7c-1.2,0-2.2,1-2.2,2.2S93.5,395.4,94.7,395.4z"/>
	<path d="M94.7,388.8h33.5c1.2,0,2.2-1,2.2-2.2c0-1.2-1-2.2-2.2-2.2H94.7c-1.2,0-2.2,1-2.2,2.2C92.5,387.8,93.5,388.8,94.7,388.8z"
		/>
	<path class="st1" d="M143.5,365.4H79.4v-67.1h51.1c7.2,0,13,5.8,13,13V365.4z"/>
	<path d="M129.5,276.9c0-2,1.4-3.4,3.3-3.3c1.7,0.1,3,1.5,3,3.2c-0.1,1.8-1.7,3.4-3.4,3.3C130.5,280.1,129.4,278.8,129.5,276.9z"/>
</g>
<g>
	<g>
		<path d="M152.6,30.7H74.3c-5.8,0-10.5,5.2-10.5,11.6v160.2c0,6.4,4.7,11.6,10.5,11.6h78.4c5.8,0,10.5-5.2,10.5-11.6V42.3
			C163.1,35.9,158.4,30.7,152.6,30.7z M157.2,202.5c0,2.8-2.1,5.1-4.6,5.1H74.3c-2.5,0-4.6-2.3-4.6-5.1V42.3c0-2.8,2.1-5.1,4.6-5.1
			h78.4c2.5,0,4.6,2.3,4.6,5.1C157.2,42.3,157.2,202.5,157.2,202.5z"/>
	</g>
	<path d="M114.4,50.2c-2.9,0-5.9,0-8.8,0c-2.2,0-3.5-1.2-3.6-3.1c0-1.8,1.3-3.1,3.5-3.2c6,0,12,0,18,0c2.2,0,3.5,1.2,3.6,3.1
		c0,1.9-1.4,3.1-3.7,3.2C120.4,50.2,117.4,50.2,114.4,50.2z"/>
	<path class="st0" d="M171.4,41.5c-1.8,0-3.2,1.4-3.2,3.4c0,1.8,1.2,3.1,3,3.2c1.7,0,3.3-1.6,3.3-3.4
		C174.5,42.9,173.1,41.5,171.4,41.5z"/>
	<path class="st0" d="M168.2,57.4c0,1.8,1.2,3.1,3,3.2c1.7,0,3.3-1.6,3.3-3.4c0-1.7-1.4-3.1-3.1-3.1C169.6,54,168.2,55.4,168.2,57.4
		z"/>
	<path class="st0" d="M168.2,69.9c0,1.9,1.1,3.1,2.9,3.2c1.7,0.1,3.3-1.5,3.4-3.3c0-1.7-1.3-3.1-3-3.2
		C169.7,66.5,168.3,67.9,168.2,69.9z"/>
	<path d="M171.4,41.5c1.7,0,3.1,1.4,3.1,3.1c0,1.8-1.6,3.5-3.3,3.4c-1.8,0-3-1.3-3-3.2C168.2,42.9,169.6,41.4,171.4,41.5z"/>
	<path d="M168.2,57.4c0-2,1.4-3.4,3.2-3.4c1.7,0,3.1,1.4,3.1,3.1c0,1.8-1.6,3.5-3.3,3.4C169.4,60.5,168.2,59.3,168.2,57.4z"/>
	<path d="M168.2,69.9c0-2,1.4-3.4,3.3-3.3c1.7,0.1,3,1.5,3,3.2c-0.1,1.8-1.7,3.4-3.4,3.3C169.3,73,168.2,71.7,168.2,69.9z"/>
	<path class="st0" d="M52.8,166.8c-1.8,0-3.2,1.4-3.2,3.4c0,1.8,1.2,3.1,3,3.2c1.7,0,3.3-1.6,3.3-3.4
		C55.9,168.2,54.5,166.8,52.8,166.8z"/>
	<path class="st0" d="M49.7,182.8c0,1.8,1.2,3.1,3,3.2c1.7,0,3.3-1.6,3.3-3.4c0-1.7-1.4-3.1-3.1-3.1C51,179.3,49.7,180.8,49.7,182.8
		z"/>
	<path class="st0" d="M49.7,195.2c0,1.9,1.1,3.1,2.9,3.2c1.7,0.1,3.3-1.5,3.4-3.3c0-1.7-1.3-3.1-3-3.2
		C51.1,191.8,49.7,193.2,49.7,195.2z"/>
	<path d="M52.8,166.8c1.7,0,3.1,1.4,3.1,3.1c0,1.8-1.6,3.5-3.3,3.4c-1.8,0-3-1.3-3-3.2C49.7,168.2,51,166.8,52.8,166.8z"/>
	<path d="M49.7,182.8c0-2,1.4-3.4,3.2-3.4c1.7,0,3.1,1.4,3.1,3.1c0,1.8-1.6,3.5-3.3,3.4C50.9,185.9,49.7,184.6,49.7,182.8z"/>
	<path d="M49.7,195.2c0-2,1.4-3.4,3.3-3.3c1.7,0.1,3,1.5,3,3.2c-0.1,1.8-1.7,3.4-3.4,3.3C50.8,198.3,49.6,197.1,49.7,195.2z"/>
	<path d="M136,48c0-2,1.4-3.4,3.3-3.3c1.7,0.1,3,1.5,3,3.2c-0.1,1.8-1.7,3.4-3.4,3.3C137.1,51.1,136,49.8,136,48z"/>
	<g id="Lag_2_00000047754391971839130120000013374328662695190680_">
		<rect x="83.9" y="90.9" class="st0" width="61.3" height="61.3"/>
	</g>
	<g id="Lag_3_00000120558704600256206830000001287121323033044910_">
		<g>
			<path d="M142.1,97.1v55.1H87V97.1H142.1 M145.2,94H83.9v61.3h61.3V94L145.2,94z"/>
		</g>
		<g>
			<path class="st2" d="M119.9,138.7l-3.4-8.8h-11.2l-3.4,8.8h-3.3l10.9-27.8h2.7l10.9,27.8C123.1,138.7,119.9,138.7,119.9,138.7z
				 M115.4,127l-3.3-8.6c-0.4-1.1-0.9-2.4-1.3-4c-0.3,1.2-0.7,2.6-1.2,4l-3.2,8.6H115.4z"/>
			<path class="st2" d="M126.2,112.4c0-0.7,0.2-1.2,0.5-1.6c0.4-0.3,0.8-0.5,1.3-0.5c0.5,0,0.9,0.2,1.3,0.5c0.4,0.3,0.5,0.9,0.5,1.6
				c0,0.7-0.2,1.2-0.5,1.6c-0.4,0.3-0.8,0.5-1.3,0.5c-0.5,0-1-0.2-1.3-0.5C126.4,113.6,126.2,113.1,126.2,112.4z M129.6,138.7h-3.2
				V118h3.2V138.7z"/>
		</g>
	</g>
</g>
<g>
	<g id="Lag_2_00000133487393355763779790000008029259260115639984_">
		<rect x="220.5" y="91.7" class="st0" width="61.3" height="61.3"/>
	</g>
	<g>
		<path d="M288.1,30.3h-78.4c-5.8,0-10.5,5.2-10.5,11.6V202c0,6.4,4.7,11.6,10.5,11.6h78.4c5.8,0,10.5-5.2,10.5-11.6V41.8
			C298.6,35.5,293.9,30.3,288.1,30.3z M292.7,202c0,2.8-2.1,5.1-4.6,5.1h-78.4c-2.5,0-4.6-2.3-4.6-5.1V41.8c0-2.8,2.1-5.1,4.6-5.1
			h78.4c2.5,0,4.6,2.3,4.6,5.1C292.7,41.8,292.7,202,292.7,202z"/>
	</g>
	<g>
		<g>
			<g>
				<path class="st3" d="M239.8,145.7c2.5-2.8,5.2-5.4,7.4-8.5c2-2.6,3.6-5.5,5-8.4c2.7-5.9,4.1-12.2,5.1-18.7c0-0.2,0.4-0.2,0.4,0
					C258.3,124.1,249.9,136.8,239.8,145.7C239.8,145.8,239.8,145.8,239.8,145.7L239.8,145.7z"/>
			</g>
			<g>
				<g>
					<path class="st3" d="M257.4,110.3c1.2-1.2,1.5-2.7,1.5-4.4c0-1.1-0.3-2.1-0.9-3c-0.4-0.5-1.1-1.7-1.6-1.2
						c-0.9,0.9-1,3.5-0.8,4.6c0.3,1.5,0.9,2.9,1.9,4c0.1,0.1-0.1,0.2-0.1,0.1c-3.1-2.1-2.6-6.7-1.1-9.5c0.1-0.1,0.2-0.2,0.3-0.1
						c1.6,1.6,2.6,2.9,2.7,5.2C259.3,107.7,259,109.5,257.4,110.3C257.4,110.4,257.3,110.3,257.4,110.3L257.4,110.3z"/>
				</g>
				<g>
					<path class="st3" d="M256.9,103c0.7,3.6,1.1,7.4,0.6,11.1c0,0.1-0.2,0.1-0.2,0C257.1,110.3,257.2,106.7,256.9,103
						C256.8,103,256.9,102.9,256.9,103L256.9,103z"/>
				</g>
				<g>
					<path class="st3" d="M257.8,104.2c0.5,1.8,0.6,4,0,5.8c0,0.1-0.1,0-0.1,0C258,108,258.2,106.2,257.8,104.2
						C257.8,104.2,257.8,104.2,257.8,104.2L257.8,104.2z"/>
				</g>
				<g>
					<path class="st3" d="M256.2,105.4c0.2,1.6,0.5,3,1.1,4.5c0,0.1-0.1,0.2-0.2,0.1c-0.5-0.6-0.7-1.3-0.8-2.1
						C256.2,107.1,256.1,106.3,256.2,105.4C256.2,105.4,256.2,105.4,256.2,105.4L256.2,105.4z"/>
				</g>
			</g>
			<g>
				<g>
					<path class="st3" d="M254.1,117.5c0.8-1.6,0.6-3.1-0.1-4.7c-0.3-0.9-0.8-1.7-1.5-2.3c-0.4-0.3-1.3-1.1-1.9-1.1
						c-1.1,0-0.1,3.9,0.2,4.5C251.6,115.4,252.8,116.6,254.1,117.5c0.2,0,0.2,0.2,0,0.1c-3.6-0.9-4.6-5.5-4.1-8.6
						c0-0.1,0.2-0.2,0.3-0.2c1.8,0.9,3.3,1.7,4.1,3.6c0.7,1.7,1.1,3.6-0.1,5.1C254.2,117.6,254.1,117.5,254.1,117.5L254.1,117.5z"/>
				</g>
				<g>
					<path class="st3" d="M251.2,110.7c1.8,3.2,3.5,6.6,4.2,10.3c0,0.1-0.1,0.1-0.2,0C253.9,117.6,252.7,114.1,251.2,110.7
						C251.2,110.7,251.2,110.7,251.2,110.7L251.2,110.7z"/>
				</g>
				<g>
					<path class="st3" d="M252.5,111.6c1.1,1.6,1.9,3.5,1.9,5.5c0,0.1-0.1,0.1-0.1,0C253.9,115.1,253.5,113.3,252.5,111.6
						C252.5,111.6,252.5,111.5,252.5,111.6L252.5,111.6z"/>
				</g>
				<g>
					<path class="st3" d="M251.4,113.3c0.7,1.4,1.5,2.7,2.5,3.9c0.1,0.1,0,0.2-0.1,0.1C252.5,116.6,251.7,114.6,251.4,113.3
						C251.4,113.3,251.4,113.2,251.4,113.3L251.4,113.3z"/>
				</g>
			</g>
			<g>
				<g>
					<path class="st3" d="M248.1,131.9c1.1-1.3,1.4-2.8,1.2-4.5c-0.1-1-0.4-1.9-1-2.7c-0.2-0.3-1.2-1.6-1.7-1.5
						c-0.4,0.1-0.7,1.7-0.7,2c-0.1,0.8-0.2,1.6,0,2.4c0.3,1.6,1.1,3.1,2.3,4.2c0.1,0.1,0,0.2-0.1,0.2c-3.2-1.9-3.1-6.5-1.7-9.4
						c0.1-0.1,0.2-0.2,0.3-0.1c1.6,1.4,2.8,2.6,3,4.8C249.9,129,249.7,130.9,248.1,131.9C248.1,132,248,131.9,248.1,131.9
						L248.1,131.9z"/>
				</g>
				<g>
					<path class="st3" d="M247.1,124.6c0.9,3.6,1.6,7.3,1.4,11c0,0.1-0.2,0.1-0.2,0C247.8,131.9,247.6,128.3,247.1,124.6
						C247,124.6,247.1,124.6,247.1,124.6L247.1,124.6z"/>
				</g>
				<g>
					<path class="st3" d="M248.1,125.7c0.7,1.8,0.9,3.9,0.4,5.8c0,0.1-0.1,0-0.1,0C248.5,129.5,248.6,127.7,248.1,125.7
						C248.1,125.7,248.1,125.7,248.1,125.7L248.1,125.7z"/>
				</g>
				<g>
					<path class="st3" d="M246.6,127.1c0.3,1.5,0.7,3,1.4,4.4c0,0.1-0.1,0.2-0.1,0.1C246.8,130.6,246.5,128.5,246.6,127.1
						C246.6,127.1,246.6,127.1,246.6,127.1L246.6,127.1z"/>
				</g>
			</g>
			<g>
				<g>
					<path class="st3" d="M256.2,125.6c-0.3-1.8,0.9-3.3,2.3-4.3c1.7-1.4,3.4-1.4,5.5-1.2c0.1,0,0.2,0.2,0.2,0.3
						C263,123.3,259.8,126.7,256.2,125.6c0,0.1-0.1-0.1,0.1-0.1c1.4,0,2.8-0.3,4-0.9c0.8-0.4,1.5-1,2.1-1.7c0.3-0.4,1.4-1.7,1.3-2.2
						c-0.1-0.4-1.5-0.3-1.8-0.3c-1,0.1-1.8,0.4-2.7,1c-1.5,1-2.6,2.4-2.8,4.3C256.3,125.7,256.2,125.7,256.2,125.6L256.2,125.6z"/>
				</g>
				<g>
					<path class="st3" d="M262.3,121.3c-3,2.1-5.8,4.6-8.7,6.8c-0.1,0.1-0.2,0-0.1-0.1C255.9,125.2,259,123.1,262.3,121.3
						C262.3,121.2,262.3,121.3,262.3,121.3L262.3,121.3z"/>
				</g>
				<g>
					<path class="st3" d="M260.7,121.3c-1.7,1-3,2.3-4.3,3.8c0,0-0.1,0-0.1,0C257.3,123.4,258.9,122.1,260.7,121.3
						C260.7,121.3,260.7,121.3,260.7,121.3L260.7,121.3z"/>
				</g>
				<g>
					<path class="st3" d="M260.8,123.3c-0.9,1-2.7,2.3-4.1,2.3c-0.1,0-0.1-0.1,0-0.2C258.1,124.9,259.5,124.2,260.8,123.3
						C260.8,123.3,260.8,123.3,260.8,123.3L260.8,123.3z"/>
				</g>
			</g>
			<g>
				<g>
					<path class="st3" d="M245.6,142.5c0.4-1.7,2-2.5,3.6-3c2.2-0.6,3.8,0,5.7,1.1c0.1,0.1,0.2,0.2,0.1,0.3
						C252.8,143.2,248.5,145,245.6,142.5c-0.1,0,0-0.1,0.1-0.1c1.3,0.6,2.7,0.9,4.2,0.8c0.8-0.1,5.1-1.5,4.4-2.5
						c-0.2-0.3-1.1-0.6-1.5-0.7c-0.9-0.3-1.7-0.4-2.6-0.2c-1.8,0.3-3.6,1.1-4.5,2.8C245.7,142.6,245.6,142.6,245.6,142.5
						L245.6,142.5z"/>
				</g>
				<g>
					<path class="st3" d="M252.9,141c-3.6,0.7-7.1,1.8-10.8,2.7c-0.1,0-0.1-0.1,0-0.2C245.5,142,249.2,141.4,252.9,141
						C252.9,141,252.9,141,252.9,141L252.9,141z"/>
				</g>
				<g>
					<path class="st3" d="M251.4,140.4c-2,0.2-3.7,0.9-5.5,1.7c0,0-0.1-0.1,0-0.1C247.5,140.9,249.5,140.4,251.4,140.4
						C251.5,140.4,251.5,140.4,251.4,140.4L251.4,140.4z"/>
				</g>
				<g>
					<path class="st3" d="M250.7,142.3c-0.8,0.3-1.7,0.5-2.5,0.6c-0.7,0.1-1.5,0.1-2.1-0.2c-0.1,0-0.1-0.2,0-0.2
						C247.7,142.7,249.2,142.5,250.7,142.3C250.7,142.3,250.7,142.3,250.7,142.3L250.7,142.3z"/>
				</g>
			</g>
			<g>
				<g>
					<path class="st3" d="M260.7,114.4c-0.9,0.5-1.6,1.2-2.3,1.9c-1.4,1.4-2,2.6-2.3,4.5c0,0.1-0.2,0.1-0.2,0
						C255.2,118.2,258.6,115.5,260.7,114.4C260.7,114.3,260.7,114.4,260.7,114.4L260.7,114.4z"/>
				</g>
				<g>
					<path class="st3" d="M260.7,112.5c-0.2-1.3,2-1.2,2.7-0.8c1.1,0.7,1.2,2.3,0.4,3.2c-0.9,1-2.7,0.9-3.4-0.2
						c-0.8-1.3,0.7-2.9,2.1-2.4c0.7,0.2,1.1,1,0.9,1.7c-0.2,0.6-0.9,1.1-1.5,0.6c-0.1-0.1-0.1-0.2,0-0.2c0.4-0.2,0.9-0.8,0.4-1.2
						c-0.5-0.4-1.1,0.1-1.3,0.6c-0.3,1.1,1.2,1.4,1.9,1.1c0.8-0.4,1-1.5,0.5-2.2C263.1,111.7,261.2,111.4,260.7,112.5
						C260.8,112.5,260.8,112.5,260.7,112.5L260.7,112.5z"/>
				</g>
			</g>
			<g>
				<g>
					<path class="st3" d="M241.1,135c0.8,1.4,1.4,3,1.6,4.6c0.2,1.2,0.3,3.2-0.6,4.1c-0.1,0.1-0.2,0-0.2-0.1
						C242.9,140.7,242.5,137.7,241.1,135C241.1,135,241.1,135,241.1,135L241.1,135z"/>
				</g>
				<g>
					<path class="st3" d="M242,133.3c0.8-1-1.1-2-1.9-2c-1.3,0.1-2.2,1.4-1.9,2.6c0.3,1.3,1.9,2.2,3.1,1.5c1.3-0.7,0.8-2.9-0.6-3.2
						c-0.7-0.1-1.5,0.3-1.6,1c-0.2,0.6,0.3,1.4,1,1.3c0.1,0,0.2-0.1,0.1-0.2c-0.2-0.4-0.4-1.1,0.2-1.2c0.6-0.1,0.9,0.7,0.8,1.2
						c-0.3,1.1-1.7,0.7-2.2,0c-0.5-0.8-0.1-1.8,0.6-2.2C240.3,131.5,242.1,132.1,242,133.3C241.9,133.3,242,133.3,242,133.3
						L242,133.3z"/>
				</g>
			</g>
			<g>
				<g>
					<path class="st3" d="M254.3,133.1c-2.2,0.4-4.7,1.6-6,3.4c0,0.1-0.2,0-0.1-0.1c0.2-1,1.5-1.6,2.3-2.1
						C251.6,133.7,252.9,133.2,254.3,133.1C254.3,133,254.3,133.1,254.3,133.1L254.3,133.1z"/>
				</g>
				<g>
					<path class="st3" d="M254.9,131.6c0.3-1,1.9-0.3,2.3,0.2c0.6,0.9,0.2,2.1-0.7,2.6c-1,0.5-2.4-0.1-2.6-1.2
						c-0.2-1.2,1.5-2,2.4-1.2c0.4,0.4,0.6,1.1,0.2,1.6c-0.3,0.4-1,0.5-1.3,0c0-0.1,0-0.2,0.1-0.2c0.4,0,1-0.3,0.7-0.8
						c-0.3-0.4-0.9-0.3-1.2,0.1c-0.6,0.8,0.5,1.5,1.2,1.4c0.8-0.1,1.2-0.8,1.1-1.6C257,131.8,255.7,130.9,254.9,131.6
						C255,131.6,254.9,131.6,254.9,131.6L254.9,131.6z"/>
				</g>
			</g>
			<g>
				<g>
					<path class="st3" d="M251.7,123.2c0.8,1.4,2,4.1,0.7,5.5c0,0.1-0.1,0-0.1-0.1C253,126.8,252.6,124.9,251.7,123.2
						C251.7,123.2,251.7,123.2,251.7,123.2L251.7,123.2z"/>
				</g>
				<g>
					<path class="st3" d="M252.3,122c0.5-0.7-0.8-1.4-1.4-1.4c-0.9,0.1-1.5,1-1.3,1.8c0.2,0.9,1.3,1.5,2.1,1c0.9-0.5,0.6-2-0.4-2.2
						c-0.5-0.1-1,0.2-1.1,0.7c-0.1,0.4,0.2,1,0.7,0.9c0.1,0,0.1-0.1,0.1-0.2c-0.2-0.3-0.3-0.8,0.2-0.8c0.4-0.1,0.7,0.4,0.6,0.8
						c-0.2,0.8-1.2,0.5-1.5,0c-0.3-0.5-0.1-1.2,0.4-1.5C251.1,120.8,252.4,121.2,252.3,122C252.3,122,252.3,122,252.3,122L252.3,122
						z"/>
				</g>
			</g>
		</g>
	</g>
	<path d="M249.9,49.7c-2.9,0-5.9,0-8.8,0c-2.2,0-3.5-1.2-3.6-3.1c0-1.8,1.3-3.1,3.5-3.2c6,0,12,0,18,0c2.2,0,3.5,1.2,3.6,3.1
		c0,1.9-1.4,3.1-3.7,3.2C255.9,49.7,252.9,49.7,249.9,49.7z"/>
	<path class="st0" d="M306.9,41c-1.8,0-3.2,1.4-3.2,3.4c0,1.8,1.2,3.1,3,3.2c1.7,0,3.3-1.6,3.3-3.4C310,42.5,308.6,41,306.9,41z"/>
	<path class="st0" d="M303.7,57c0,1.8,1.2,3.1,3,3.2c1.7,0,3.3-1.6,3.3-3.4c0-1.7-1.4-3.1-3.1-3.1C305.1,53.5,303.7,55,303.7,57z"/>
	<path class="st0" d="M303.7,69.4c0,1.9,1.1,3.1,2.9,3.2c1.7,0.1,3.3-1.5,3.4-3.3c0-1.7-1.3-3.1-3-3.2
		C305.2,66,303.8,67.4,303.7,69.4z"/>
	<path d="M306.9,41c1.7,0,3.1,1.4,3.1,3.1c0,1.8-1.6,3.5-3.3,3.4c-1.8,0-3-1.3-3-3.2C303.7,42.4,305.1,41,306.9,41z"/>
	<path d="M303.7,57c0-2,1.4-3.4,3.2-3.4c1.7,0,3.1,1.4,3.1,3.1c0,1.8-1.6,3.5-3.3,3.4C304.9,60.1,303.7,58.8,303.7,57z"/>
	<path d="M303.7,69.4c0-2,1.4-3.4,3.3-3.3c1.7,0.1,3,1.5,3,3.2c-0.1,1.8-1.7,3.4-3.4,3.3C304.8,72.6,303.7,71.3,303.7,69.4z"/>
	<path class="st0" d="M188.4,166.4c-1.8,0-3.2,1.4-3.2,3.4c0,1.8,1.2,3.1,3,3.2c1.7,0,3.3-1.6,3.3-3.4
		C191.4,167.8,190,166.4,188.4,166.4z"/>
	<path class="st0" d="M185.2,182.3c0,1.8,1.2,3.1,3,3.2c1.7,0,3.3-1.6,3.3-3.4c0-1.7-1.4-3.1-3.1-3.1
		C186.5,178.9,185.2,180.3,185.2,182.3z"/>
	<path class="st0" d="M185.2,194.8c0,1.9,1.1,3.1,2.9,3.2c1.7,0.1,3.3-1.5,3.4-3.3c0-1.7-1.3-3.1-3-3.2
		C186.6,191.3,185.2,192.8,185.2,194.8z"/>
	<path d="M188.4,166.4c1.7,0,3.1,1.4,3.1,3.1c0,1.8-1.6,3.5-3.3,3.4c-1.8,0-3-1.3-3-3.2C185.2,167.8,186.5,166.3,188.4,166.4z"/>
	<path d="M185.2,182.3c0-2,1.4-3.4,3.2-3.4c1.7,0,3.1,1.4,3.1,3.1c0,1.8-1.6,3.5-3.3,3.4C186.4,185.4,185.2,184.1,185.2,182.3z"/>
	<path d="M185.2,194.8c0-2,1.4-3.4,3.3-3.3c1.7,0.1,3,1.5,3,3.2c-0.1,1.8-1.7,3.4-3.4,3.3C186.3,197.9,185.1,196.6,185.2,194.8z"/>
	<path d="M271.5,47.5c0-2,1.4-3.4,3.3-3.3c1.7,0.1,3,1.5,3,3.2c-0.1,1.8-1.7,3.4-3.4,3.3C272.6,50.7,271.5,49.4,271.5,47.5z"/>
	<g id="Lag_3_00000150060935179282556890000002640071698284696195_">
		<g>
			<path d="M277.6,96.6v55.1h-55.1V96.6H277.6 M280.7,93.5h-61.3v61.3h61.3V93.5L280.7,93.5z"/>
		</g>
	</g>
</g>
</svg>
